<svg xmlns="http://www.w3.org/2000/svg" width="320" height="320" viewBox="0 0 320 320" shape-rendering="crispEdges">
<rect width="320" height="320" fill="#15171a"/>
<rect x="0" y="0" width="260" height="10" fill="#1d2125"/>
<rect x="0" y="10" width="250" height="10" fill="#1d2125"/>
<rect x="0" y="20" width="30" height="10" fill="#1d2125"/>
<rect x="30" y="20" width="260" height="10" fill="#c2542d"/>
<rect x="0" y="30" width="20" height="10" fill="#1d2125"/>
<rect x="20" y="30" width="280" height="10" fill="#c2542d"/>
<rect x="0" y="40" width="20" height="10" fill="#1d2125"/>
<rect x="20" y="40" width="20" height="10" fill="#c2542d"/>
<rect x="40" y="40" width="180" height="10" fill="#1d2125"/>
<rect x="280" y="40" width="20" height="10" fill="#c2542d"/>
<rect x="0" y="50" width="20" height="10" fill="#1d2125"/>
<rect x="20" y="50" width="20" height="10" fill="#c2542d"/>
<rect x="40" y="50" width="10" height="10" fill="#1d2125"/>
<rect x="50" y="50" width="10" height="10" fill="#c2542d"/>
<rect x="60" y="50" width="20" height="10" fill="#7a8a8f"/>
<rect x="80" y="50" width="130" height="10" fill="#1d2125"/>
<rect x="280" y="50" width="20" height="10" fill="#c2542d"/>
<rect x="0" y="60" width="20" height="10" fill="#1d2125"/>
<rect x="20" y="60" width="20" height="10" fill="#c2542d"/>
<rect x="40" y="60" width="30" height="10" fill="#1d2125"/>
<rect x="70" y="60" width="10" height="10" fill="#7a8a8f"/>
<rect x="80" y="60" width="120" height="10" fill="#1d2125"/>
<rect x="280" y="60" width="20" height="10" fill="#c2542d"/>
<rect x="0" y="70" width="20" height="10" fill="#1d2125"/>
<rect x="20" y="70" width="20" height="10" fill="#c2542d"/>
<rect x="40" y="70" width="30" height="10" fill="#1d2125"/>
<rect x="70" y="70" width="10" height="10" fill="#c2542d"/>
<rect x="80" y="70" width="110" height="10" fill="#1d2125"/>
<rect x="280" y="70" width="20" height="10" fill="#c2542d"/>
<rect x="0" y="80" width="20" height="10" fill="#1d2125"/>
<rect x="20" y="80" width="20" height="10" fill="#c2542d"/>
<rect x="40" y="80" width="140" height="10" fill="#1d2125"/>
<rect x="280" y="80" width="20" height="10" fill="#c2542d"/>
<rect x="0" y="90" width="20" height="10" fill="#1d2125"/>
<rect x="20" y="90" width="20" height="10" fill="#c2542d"/>
<rect x="40" y="90" width="130" height="10" fill="#1d2125"/>
<rect x="280" y="90" width="20" height="10" fill="#c2542d"/>
<rect x="0" y="100" width="20" height="10" fill="#1d2125"/>
<rect x="20" y="100" width="20" height="10" fill="#c2542d"/>
<rect x="40" y="100" width="10" height="10" fill="#1d2125"/>
<rect x="50" y="100" width="100" height="10" fill="#eceae6"/>
<rect x="150" y="100" width="10" height="10" fill="#1d2125"/>
<rect x="280" y="100" width="20" height="10" fill="#c2542d"/>
<rect x="0" y="110" width="20" height="10" fill="#1d2125"/>
<rect x="20" y="110" width="20" height="10" fill="#c2542d"/>
<rect x="40" y="110" width="10" height="10" fill="#1d2125"/>
<rect x="50" y="110" width="100" height="10" fill="#eceae6"/>
<rect x="280" y="110" width="20" height="10" fill="#c2542d"/>
<rect x="0" y="120" width="20" height="10" fill="#1d2125"/>
<rect x="20" y="120" width="20" height="10" fill="#c2542d"/>
<rect x="40" y="120" width="10" height="10" fill="#1d2125"/>
<rect x="50" y="120" width="20" height="10" fill="#eceae6"/>
<rect x="70" y="120" width="70" height="10" fill="#1d2125"/>
<rect x="190" y="120" width="60" height="10" fill="#eceae6"/>
<rect x="280" y="120" width="20" height="10" fill="#c2542d"/>
<rect x="0" y="130" width="20" height="10" fill="#1d2125"/>
<rect x="20" y="130" width="20" height="10" fill="#c2542d"/>
<rect x="40" y="130" width="10" height="10" fill="#1d2125"/>
<rect x="50" y="130" width="20" height="10" fill="#eceae6"/>
<rect x="70" y="130" width="60" height="10" fill="#1d2125"/>
<rect x="190" y="130" width="60" height="10" fill="#eceae6"/>
<rect x="280" y="130" width="20" height="10" fill="#c2542d"/>
<rect x="0" y="140" width="20" height="10" fill="#1d2125"/>
<rect x="20" y="140" width="20" height="10" fill="#c2542d"/>
<rect x="40" y="140" width="10" height="10" fill="#1d2125"/>
<rect x="50" y="140" width="20" height="10" fill="#eceae6"/>
<rect x="70" y="140" width="50" height="10" fill="#1d2125"/>
<rect x="170" y="140" width="20" height="10" fill="#eceae6"/>
<rect x="250" y="140" width="20" height="10" fill="#eceae6"/>
<rect x="280" y="140" width="20" height="10" fill="#c2542d"/>
<rect x="0" y="150" width="20" height="10" fill="#1d2125"/>
<rect x="20" y="150" width="20" height="10" fill="#c2542d"/>
<rect x="40" y="150" width="10" height="10" fill="#1d2125"/>
<rect x="50" y="150" width="20" height="10" fill="#eceae6"/>
<rect x="70" y="150" width="40" height="10" fill="#1d2125"/>
<rect x="170" y="150" width="20" height="10" fill="#eceae6"/>
<rect x="250" y="150" width="20" height="10" fill="#eceae6"/>
<rect x="280" y="150" width="20" height="10" fill="#c2542d"/>
<rect x="0" y="160" width="20" height="10" fill="#1d2125"/>
<rect x="20" y="160" width="20" height="10" fill="#c2542d"/>
<rect x="40" y="160" width="10" height="10" fill="#1d2125"/>
<rect x="50" y="160" width="80" height="10" fill="#eceae6"/>
<rect x="170" y="160" width="100" height="10" fill="#eceae6"/>
<rect x="280" y="160" width="20" height="10" fill="#c2542d"/>
<rect x="0" y="170" width="20" height="10" fill="#1d2125"/>
<rect x="20" y="170" width="20" height="10" fill="#c2542d"/>
<rect x="40" y="170" width="10" height="10" fill="#1d2125"/>
<rect x="50" y="170" width="80" height="10" fill="#eceae6"/>
<rect x="170" y="170" width="100" height="10" fill="#eceae6"/>
<rect x="280" y="170" width="20" height="10" fill="#c2542d"/>
<rect x="0" y="180" width="20" height="10" fill="#1d2125"/>
<rect x="20" y="180" width="20" height="10" fill="#c2542d"/>
<rect x="40" y="180" width="10" height="10" fill="#1d2125"/>
<rect x="50" y="180" width="20" height="10" fill="#eceae6"/>
<rect x="70" y="180" width="10" height="10" fill="#1d2125"/>
<rect x="170" y="180" width="20" height="10" fill="#eceae6"/>
<rect x="280" y="180" width="20" height="10" fill="#c2542d"/>
<rect x="0" y="190" width="20" height="10" fill="#1d2125"/>
<rect x="20" y="190" width="20" height="10" fill="#c2542d"/>
<rect x="40" y="190" width="10" height="10" fill="#1d2125"/>
<rect x="50" y="190" width="20" height="10" fill="#eceae6"/>
<rect x="170" y="190" width="20" height="10" fill="#eceae6"/>
<rect x="280" y="190" width="20" height="10" fill="#c2542d"/>
<rect x="0" y="200" width="20" height="10" fill="#1d2125"/>
<rect x="20" y="200" width="20" height="10" fill="#c2542d"/>
<rect x="40" y="200" width="10" height="10" fill="#1d2125"/>
<rect x="50" y="200" width="20" height="10" fill="#eceae6"/>
<rect x="190" y="200" width="80" height="10" fill="#eceae6"/>
<rect x="280" y="200" width="20" height="10" fill="#c2542d"/>
<rect x="0" y="210" width="20" height="10" fill="#1d2125"/>
<rect x="20" y="210" width="20" height="10" fill="#c2542d"/>
<rect x="40" y="210" width="10" height="10" fill="#1d2125"/>
<rect x="50" y="210" width="20" height="10" fill="#eceae6"/>
<rect x="190" y="210" width="80" height="10" fill="#eceae6"/>
<rect x="280" y="210" width="20" height="10" fill="#c2542d"/>
<rect x="0" y="220" width="20" height="10" fill="#1d2125"/>
<rect x="20" y="220" width="20" height="10" fill="#c2542d"/>
<rect x="50" y="220" width="20" height="10" fill="#eceae6"/>
<rect x="280" y="220" width="20" height="10" fill="#c2542d"/>
<rect x="0" y="230" width="20" height="10" fill="#1d2125"/>
<rect x="20" y="230" width="20" height="10" fill="#c2542d"/>
<rect x="50" y="230" width="20" height="10" fill="#eceae6"/>
<rect x="280" y="230" width="20" height="10" fill="#c2542d"/>
<rect x="0" y="240" width="20" height="10" fill="#1d2125"/>
<rect x="20" y="240" width="20" height="10" fill="#c2542d"/>
<rect x="240" y="240" width="10" height="10" fill="#c2542d"/>
<rect x="280" y="240" width="20" height="10" fill="#c2542d"/>
<rect x="0" y="250" width="10" height="10" fill="#1d2125"/>
<rect x="20" y="250" width="20" height="10" fill="#c2542d"/>
<rect x="240" y="250" width="10" height="10" fill="#7a8a8f"/>
<rect x="280" y="250" width="20" height="10" fill="#c2542d"/>
<rect x="20" y="260" width="20" height="10" fill="#c2542d"/>
<rect x="240" y="260" width="20" height="10" fill="#7a8a8f"/>
<rect x="260" y="260" width="10" height="10" fill="#c2542d"/>
<rect x="280" y="260" width="20" height="10" fill="#c2542d"/>
<rect x="20" y="270" width="20" height="10" fill="#c2542d"/>
<rect x="280" y="270" width="20" height="10" fill="#c2542d"/>
<rect x="20" y="280" width="280" height="10" fill="#c2542d"/>
<rect x="20" y="290" width="10" height="10" fill="#1d2125"/>
<rect x="30" y="290" width="260" height="10" fill="#c2542d"/>
</svg>